<svg viewBox="0 0 20 20" fill="none" xmlns="http://www.w3.org/2000/svg">
<g clip-path="url(#clip0_1348_12767)">
<path d="M1.77666 11.358C1.62718 10.4586 1.62718 9.5407 1.77666 8.64131C2.69499 8.66298 3.51999 8.22298 3.84083 7.44881C4.16166 6.67381 3.88916 5.77881 3.22416 5.14631C3.7545 4.40405 4.4038 3.75448 5.14583 3.22381C5.77916 3.88881 6.67416 4.16131 7.44916 3.84048C8.22416 3.51964 8.66333 2.69381 8.64083 1.77631C9.54076 1.62665 10.4592 1.62665 11.3592 1.77631C11.3367 2.69464 11.7767 3.51964 12.5508 3.84048C13.3258 4.16131 14.2208 3.88881 14.8533 3.22381C15.5956 3.75415 16.2452 4.40345 16.7758 5.14548C16.1108 5.77881 15.8383 6.67381 16.1592 7.44881C16.48 8.22381 17.3058 8.66298 18.2233 8.64048C18.373 9.54041 18.373 10.4589 18.2233 11.3588C17.305 11.3363 16.48 11.7763 16.1592 12.5505C15.8383 13.3255 16.1108 14.2205 16.7758 14.853C16.2455 15.5952 15.5962 16.2448 14.8542 16.7755C14.2208 16.1105 13.3258 15.838 12.5508 16.1588C11.7758 16.4796 11.3367 17.3055 11.3592 18.223C10.4592 18.3726 9.54076 18.3726 8.64083 18.223C8.66333 17.3046 8.22333 16.4796 7.44916 16.1588C6.67416 15.838 5.77916 16.1105 5.14666 16.7755C4.4044 16.2451 3.75483 15.5958 3.22416 14.8538C3.88916 14.2205 4.16166 13.3255 3.84083 12.5505C3.51999 11.7755 2.69416 11.3363 1.77666 11.3588V11.358ZM9.99999 12.4996C10.663 12.4996 11.2989 12.2363 11.7678 11.7674C12.2366 11.2986 12.5 10.6627 12.5 9.99964C12.5 9.3366 12.2366 8.70072 11.7678 8.23188C11.2989 7.76303 10.663 7.49964 9.99999 7.49964C9.33695 7.49964 8.70107 7.76303 8.23223 8.23188C7.76338 8.70072 7.49999 9.3366 7.49999 9.99964C7.49999 10.6627 7.76338 11.2986 8.23223 11.7674C8.70107 12.2363 9.33695 12.4996 9.99999 12.4996Z" fill="currentColor"/>
</g>
<defs>
<clipPath id="clip0_1348_12767">
<rect width="20" height="20" fill="white"/>
</clipPath>
</defs>
</svg>
