<svg viewBox="0 0 24 24" fill="none" xmlns="http://www.w3.org/2000/svg">
<path d="M22.1301 5.12995H19.6601V3.56995C19.6601 3.01995 19.2101 2.56995 18.6601 2.56995H5.34012C4.79012 2.56995 4.34012 3.01995 4.34012 3.56995V5.12995H1.87012C1.32012 5.12995 0.870117 5.57995 0.870117 6.12995V8.89995C0.870117 10.9799 2.24012 13.0699 4.82012 13.3499C5.79012 15.9799 8.15012 17.9299 11.0001 18.3099V20.4299H6.71012V22.4299H17.2901V20.4299H13.0001V18.3099C15.8501 17.9299 18.2101 15.9799 19.1801 13.3499C21.7701 13.0599 23.1301 10.9799 23.1301 8.89995V6.12995C23.1301 5.57995 22.6801 5.12995 22.1301 5.12995ZM2.87012 8.88995V7.11995H4.34012V10.6799C4.34012 10.8599 4.35012 11.0299 4.37012 11.2099C3.35012 10.8199 2.87012 9.84995 2.87012 8.88995ZM21.1401 8.88995C21.1401 9.84995 20.6701 10.8199 19.6401 11.2099C19.6501 11.0399 19.6701 10.8599 19.6701 10.6799V7.11995H21.1401V8.88995Z" fill="currentColor"/>
</svg>
