<svg viewBox="0 0 18 18" fill="none" xmlns="http://www.w3.org/2000/svg">
<g clip-path="url(#clip0_1353_11863)">
<path d="M4.29167 3.76182V10.2679C4.29167 10.7343 4.40682 11.1935 4.62689 11.6047C4.84696 12.0159 5.16515 12.3665 5.55321 12.6252L9.25 15.0902L12.9468 12.6252C13.3348 12.3665 13.6529 12.0161 13.8729 11.605C14.093 11.1939 14.2082 10.7349 14.2083 10.2686V3.76182L9.25 2.66107L4.29167 3.76182ZM3.42962 2.5024L9.25 1.20898L15.0704 2.5024C15.2277 2.53737 15.3683 2.62492 15.4692 2.7506C15.57 2.87629 15.625 3.0326 15.625 3.19373V10.2679C15.6249 10.9675 15.4522 11.6563 15.122 12.2732C14.7918 12.89 14.3145 13.4158 13.7323 13.8039L9.25 16.7923L4.76767 13.8039C4.18561 13.4159 3.70833 12.8902 3.37816 12.2735C3.048 11.6568 2.87517 10.9681 2.875 10.2686V3.19373C2.87503 3.0326 2.92999 2.87629 3.03083 2.7506C3.13166 2.62492 3.27233 2.53737 3.42962 2.5024ZM9.25 10.0632L7.16821 11.1575L7.56558 8.83986L5.88187 7.19794L8.20946 6.85936L9.25 4.75065L10.2912 6.85936L12.6181 7.19794L10.9344 8.83986L11.3311 11.1575L9.25 10.0632Z" fill="currentColor"/>
</g>
<defs>
<clipPath id="clip0_1353_11863">
<rect width="17" height="17" fill="white" transform="translate(0.75 0.5)"/>
</clipPath>
</defs>
</svg>
