<svg viewBox="0 0 24 24" fill="none" xmlns="http://www.w3.org/2000/svg">
<g clip-path="url(#clip0_644_6699)">
<path d="M2.28027 22.0132C2.28027 20.0157 3.07377 18.1 4.48619 16.6876C5.89862 15.2752 7.81428 14.4817 9.81176 14.4817C11.8092 14.4817 13.7249 15.2752 15.1373 16.6876C16.5497 18.1 17.3432 20.0157 17.3432 22.0132H2.28027ZM9.81176 13.5403C6.6909 13.5403 4.16314 11.0125 4.16314 7.89165C4.16314 4.7708 6.6909 2.24304 9.81176 2.24304C12.9326 2.24304 15.4604 4.7708 15.4604 7.89165C15.4604 11.0125 12.9326 13.5403 9.81176 13.5403ZM16.7435 15.6425C18.1836 16.0126 19.4702 16.8276 20.4202 17.9714C21.3701 19.1153 21.935 20.5296 22.0344 22.0132H19.2261C19.2261 19.556 18.2847 17.3192 16.7435 15.6425ZM14.839 13.4998C15.6279 12.7942 16.2589 11.9298 16.6904 10.9633C17.122 9.99685 17.3444 8.9501 17.3432 7.89165C17.3452 6.60515 17.0162 5.33977 16.3877 4.21723C17.454 4.43149 18.4132 5.00839 19.1023 5.84987C19.7913 6.69134 20.1678 7.74547 20.1675 8.83309C20.1678 9.50383 20.0247 10.1669 19.7478 10.7778C19.4709 11.3887 19.0666 11.9334 18.562 12.3753C18.0574 12.8172 17.4642 13.1461 16.8221 13.3401C16.18 13.534 15.5039 13.5885 14.839 13.4998Z" fill="currentColor"/>
</g>
<defs>
<clipPath id="clip0_644_6699">
<rect width="24" height="24" fill="white"/>
</clipPath>
</defs>
</svg>
