<svg viewBox="0 0 24 24" fill="none" xmlns="http://www.w3.org/2000/svg">
<g clip-path="url(#clip0_755_13516)">
<path d="M22.79 10.9L19.53 3.34997C19.49 3.17997 19.41 3.00997 19.28 2.87997C19.09 2.68997 18.84 2.58997 18.57 2.58997H5.41004C5.41004 2.58997 5.37004 2.59997 5.35004 2.59997C5.26004 2.59997 5.17004 2.61997 5.09004 2.64997C5.05004 2.65997 5.01004 2.67997 4.97004 2.69997C4.92004 2.72997 4.87004 2.75997 4.82004 2.79997C4.78004 2.82997 4.74004 2.84997 4.70004 2.87997C4.61004 2.96997 4.55004 3.08997 4.50004 3.20997L4.45004 3.31997C4.45004 3.31997 4.45004 3.36997 4.43004 3.39997L1.19004 10.9C1.07004 11.16 1.08004 11.47 1.21004 11.73C1.34004 11.99 1.58004 12.17 1.87004 12.23L4.03004 12.65L3.69004 21C3.69004 21.27 3.80004 21.52 3.98004 21.71C4.17004 21.9 4.42004 22 4.69004 22H19.27C19.54 22 19.79 21.89 19.98 21.71C20.17 21.53 20.27 21.27 20.27 21L19.93 12.65L22.1 12.23C22.38 12.17 22.62 11.98 22.76 11.73C22.89 11.47 22.9 11.17 22.78 10.9H22.79ZM15.52 4.57997C15.5 5.49997 14.07 7.11997 11.99 7.11997C9.91004 7.11997 8.48 5.49997 8.46004 4.57997H15.51H15.52Z" fill="currentColor"/>
</g>
<defs>
<clipPath id="clip0_755_13516">
<rect width="24" height="24" fill="white"/>
</clipPath>
</defs>
</svg>
