<svg viewBox="0 0 16 16" fill="none" xmlns="http://www.w3.org/2000/svg">
<g clip-path="url(#clip0_1238_14458)">
<path d="M5.94547 7.28711L6.74756 9.66732H9.26058L10.0319 7.28763L8.00016 5.81576L5.94547 7.28711ZM7.97672 1.33398C4.31787 1.33398 1.3335 4.31836 1.3335 8.00065C1.3335 11.6829 4.31787 14.6673 8.00016 14.6673C11.6825 14.6673 14.6434 11.6829 14.6434 8.02409C14.6434 4.36523 11.6825 1.33398 7.97672 1.33398ZM12.6668 10.7376L9.9611 10.6965L9.1624 13.2882C8.78662 13.3704 8.3986 13.4173 8.00016 13.4173C7.60172 13.4173 7.21396 13.3711 6.83974 13.2889L6.04183 10.6986L3.33427 10.7376C2.94547 10.0775 2.6887 9.33112 2.61032 8.53138L4.83089 6.9694L3.95589 4.40951C4.47282 3.82773 5.11006 3.35612 5.83193 3.03919L8.00016 4.66732L10.1692 3.04049C10.891 3.35742 11.5283 3.82878 12.0452 4.41081L11.1694 6.9694L13.389 8.53112C13.2892 9.33138 13.0548 10.0788 12.6668 10.7376Z" fill="currentColor"/>
</g>
<defs>
<clipPath id="clip0_1238_14458">
<rect width="16" height="16" fill="white"/>
</clipPath>
</defs>
</svg>
