<svg viewBox="0 0 50 50" fill="none" xmlns="http://www.w3.org/2000/svg">
<g clip-path="url(#clip0_1009_10233)">
<path d="M35.4167 4.16667H41.6667C42.2192 4.16667 42.7491 4.38616 43.1398 4.77686C43.5305 5.16756 43.75 5.69747 43.75 6.25V43.75C43.75 44.3025 43.5305 44.8324 43.1398 45.2231C42.7491 45.6138 42.2192 45.8333 41.6667 45.8333H8.33333C7.7808 45.8333 7.25089 45.6138 6.86019 45.2231C6.46949 44.8324 6.25 44.3025 6.25 43.75V6.25C6.25 5.69747 6.46949 5.16756 6.86019 4.77686C7.25089 4.38616 7.7808 4.16667 8.33333 4.16667H14.5833V0H18.75V4.16667H31.25V0H35.4167V4.16667ZM35.4167 8.33333V12.5H31.25V8.33333H18.75V12.5H14.5833V8.33333H10.4167V41.6667H39.5833V8.33333H35.4167ZM14.5833 16.6667H35.4167V20.8333H14.5833V16.6667ZM14.5833 25H35.4167V29.1667H14.5833V25Z" fill="currentColor"/>
</g>
<defs>
<clipPath id="clip0_1009_10233">
<rect width="50" height="50" fill="white"/>
</clipPath>
</defs>
</svg>
