<svg viewBox="0 0 21 21" fill="none" xmlns="http://www.w3.org/2000/svg">
<path d="M10.6063 1.3783C12.9159 1.3783 15.1309 2.29578 16.764 3.92891C18.3971 5.56204 19.3146 7.77704 19.3146 10.0866C19.3146 12.3962 18.3971 14.6112 16.764 16.2444C15.1309 17.8775 12.9159 18.795 10.6063 18.795C8.29669 18.795 6.08169 17.8775 4.44856 16.2444C2.81543 14.6112 1.89795 12.3962 1.89795 10.0866C1.89795 7.77704 2.81543 5.56204 4.44856 3.92891C6.08169 2.29578 8.29669 1.3783 10.6063 1.3783Z" fill="white"/>
<path d="M10.6063 1.3783C12.9159 1.3783 15.1309 2.29578 16.764 3.92891C18.3971 5.56204 19.3146 7.77704 19.3146 10.0866C19.3146 12.3962 18.3971 14.6112 16.764 16.2444C15.1309 17.8775 12.9159 18.795 10.6063 18.795C8.29669 18.795 6.08169 17.8775 4.44856 16.2444C2.81543 14.6112 1.89795 12.3962 1.89795 10.0866C1.89795 7.77704 2.81543 5.56204 4.44856 3.92891C6.08169 2.29578 8.29669 1.3783 10.6063 1.3783ZM10.6063 5.18819L9.16614 8.10548L5.94732 8.57356L8.2768 10.8432L7.72709 14.05L10.6063 12.5358L13.4855 14.0489L12.9358 10.8432L15.2652 8.57247L12.0464 8.1044L10.6063 5.18819Z" fill="currentColor"/>
</svg>
