<svg viewBox="0 0 21 21" fill="none" xmlns="http://www.w3.org/2000/svg">
<path d="M10.3875 1.37842C12.6971 1.37842 14.9121 2.2959 16.5453 3.92903C18.1784 5.56216 19.0959 7.77716 19.0959 10.0868C19.0959 12.3963 18.1784 14.6113 16.5453 16.2445C14.9121 17.8776 12.6971 18.7951 10.3875 18.7951C8.07794 18.7951 5.86294 17.8776 4.22981 16.2445C2.59668 14.6113 1.6792 12.3963 1.6792 10.0868C1.6792 7.77716 2.59668 5.56216 4.22981 3.92903C5.86294 2.2959 8.07794 1.37842 10.3875 1.37842Z" fill="white"/>
<path fill-rule="evenodd" clip-rule="evenodd" d="M16.5453 3.92903C14.9121 2.2959 12.6971 1.37842 10.3875 1.37842C8.07794 1.37842 5.86294 2.2959 4.22981 3.92903C2.59668 5.56216 1.6792 7.77716 1.6792 10.0868C1.6792 12.3963 2.59668 14.6113 4.22981 16.2445C5.86294 17.8776 8.07794 18.7951 10.3875 18.7951C12.6971 18.7951 14.9121 17.8776 16.5453 16.2445C18.1784 14.6113 19.0959 12.3963 19.0959 10.0868C19.0959 7.77716 18.1784 5.56216 16.5453 3.92903ZM11.278 6.83849C11.278 7.12436 11.1468 7.37959 10.9414 7.54727L12.2441 10.693L14.7722 8.93804C14.7175 8.82073 14.6869 8.68987 14.6869 8.55187C14.6869 8.04686 15.0963 7.63747 15.6013 7.63747C16.1063 7.63747 16.5157 8.04686 16.5157 8.55187C16.5157 9.05688 16.1063 9.46627 15.6013 9.46627L15.5809 9.46605C15.2035 10.7483 14.4664 13.2534 14.4384 13.351C14.4311 13.3765 14.4245 13.4028 14.4178 13.4293L14.4178 13.4293L14.4178 13.4294L14.4178 13.4295L14.4178 13.4295L14.4178 13.4295C14.39 13.5395 14.3612 13.6537 14.279 13.7359C14.1769 13.838 14.0385 13.8953 13.8942 13.8953H10.7668L10.7526 13.8955H6.87729C6.73294 13.8955 6.5945 13.8382 6.49243 13.7361C6.41022 13.6539 6.38142 13.5397 6.35368 13.4297L6.35367 13.4297L6.35367 13.4297L6.35366 13.4297C6.34697 13.4031 6.34033 13.3768 6.33302 13.3513C6.30509 13.2536 5.56792 10.7486 5.19055 9.46635L5.17357 9.4665C4.66856 9.4665 4.25917 9.05711 4.25917 8.5521C4.25917 8.04709 4.66856 7.6377 5.17357 7.6377C5.67859 7.6377 6.08798 8.04709 6.08798 8.5521C6.08798 8.69082 6.05709 8.82233 6.00181 8.94012L8.50982 10.6811L9.80222 7.56035C9.58738 7.39303 9.44919 7.1319 9.44919 6.83849C9.44919 6.33348 9.85858 5.92409 10.3636 5.92409C10.8686 5.92409 11.278 6.33348 11.278 6.83849Z" fill="currentColor"/>
</svg>
