<svg viewBox="0 0 16 16" fill="none" xmlns="http://www.w3.org/2000/svg">
<g clip-path="url(#clip0_1238_14480)">
<path d="M8.00016 7.33398V5.33398L10.6668 8.00065L8.00016 10.6673V8.66732H5.3335V7.33398H8.00016ZM8.00016 1.33398C11.6802 1.33398 14.6668 4.32065 14.6668 8.00065C14.6668 11.6807 11.6802 14.6673 8.00016 14.6673C4.32016 14.6673 1.3335 11.6807 1.3335 8.00065C1.3335 4.32065 4.32016 1.33398 8.00016 1.33398ZM8.00016 13.334C10.9468 13.334 13.3335 10.9473 13.3335 8.00065C13.3335 5.05398 10.9468 2.66732 8.00016 2.66732C5.0535 2.66732 2.66683 5.05398 2.66683 8.00065C2.66683 10.9473 5.0535 13.334 8.00016 13.334Z" fill="currentColor"/>
</g>
<defs>
<clipPath id="clip0_1238_14480">
<rect width="16" height="16" fill="white"/>
</clipPath>
</defs>
</svg>
