<svg viewBox="0 0 16 16" fill="none" xmlns="http://www.w3.org/2000/svg">
<g clip-path="url(#clip0_1291_11177)">
<path d="M8 14.25C4.54813 14.25 1.75 11.4519 1.75 8C1.75 4.54813 4.54813 1.75 8 1.75C11.4519 1.75 14.25 4.54813 14.25 8C14.25 11.4519 11.4519 14.25 8 14.25ZM8 13C9.32608 13 10.5979 12.4732 11.5355 11.5355C12.4732 10.5979 13 9.32608 13 8C13 6.67392 12.4732 5.40215 11.5355 4.46447C10.5979 3.52678 9.32608 3 8 3C6.67392 3 5.40215 3.52678 4.46447 4.46447C3.52678 5.40215 3 6.67392 3 8C3 9.32608 3.52678 10.5979 4.46447 11.5355C5.40215 12.4732 6.67392 13 8 13ZM8.625 8H11.125V9.25H7.375V4.875H8.625V8Z" fill="currentColor"/>
</g>
<defs>
<clipPath id="clip0_1291_11177">
<rect width="15" height="15" fill="white" transform="translate(0.5 0.5)"/>
</clipPath>
</defs>
</svg>
