<svg width="37" height="21" viewBox="0 0 37 21" fill="none" xmlns="http://www.w3.org/2000/svg">
<path d="M11.0233 0.958689C11.022 0.958689 11.021 0.959603 11.0208 0.960828L10.708 3.26712C10.4165 5.41867 9.42119 6.48323 7.72184 7.87277C6.07335 9.22072 3.90672 10.0414 1.24757 10.2939C1.12046 10.306 1.01621 10.196 1.03335 10.0695L1.28493 8.21221C1.29758 8.11879 1.37377 8.04706 1.46766 8.03863C2.28514 7.96517 3.09254 7.81277 3.85241 7.58142C4.63839 7.3573 4.88029 7.2415 5.5 6.81567C6.11971 6.38985 7.0703 5.94321 7.5 5.31567C7.88435 4.71055 8.17948 4.38772 8.29608 3.53606L8.31084 3.42662C8.32703 3.30662 8.23372 3.19988 8.11264 3.19988H2.72094C2.59978 3.19988 2.50645 3.09302 2.52276 2.97296L2.77288 1.13177C2.78635 1.03262 2.87101 0.958689 2.97106 0.958689H11.0233ZM14.4246 19.4661C14.4183 19.5127 14.396 19.5557 14.3604 19.5863C14.1177 19.7943 13.7847 20.0009 13.3978 20.1881C12.9422 20.3674 12.4693 20.5019 11.9338 20.6364C11.4026 20.726 10.8542 20.7933 10.269 20.8157C9.66442 20.8157 8.58357 20.7933 8.03511 20.7036C7.46722 20.5916 6.9274 20.4347 6.43941 20.2106C5.93197 19.964 5.50012 19.6503 5.16543 19.2468C4.78756 18.8434 4.52844 18.3728 4.38809 17.8125C4.20455 17.2522 4.18728 16.2659 4.29308 15.4815L4.84793 10.9911C4.86031 10.8909 4.94544 10.8157 5.04642 10.8157H14.4983C14.62 10.8157 14.7134 10.9233 14.6963 11.0438L14.4659 12.6674C14.4519 12.766 14.3675 12.8393 14.2679 12.8393H7.20129C7.09944 12.8393 7.01385 12.9159 7.00253 13.0171L6.86156 14.2778C6.84831 14.3963 6.94107 14.5 7.06032 14.5H13.308C13.4295 14.5 13.523 14.6075 13.506 14.7279L13.2751 16.3697C13.2612 16.4684 13.1768 16.5418 13.0771 16.5418H6.92003C6.79482 16.5418 6.70039 16.6555 6.73021 16.7771C6.83271 17.1951 7.03191 17.7612 7.32903 17.9469C7.87965 18.3504 9.06198 18.5745 9.87603 18.6193C10.6901 18.6641 11.5624 18.5969 12.478 18.3728C13.1321 18.2088 13.7303 18.0568 14.2202 17.7499C14.3865 17.6457 14.6529 17.7832 14.6266 17.9776L14.4246 19.4661ZM15.582 4.11602C15.5657 4.23606 15.6591 4.34289 15.7802 4.34289H18.2712C18.3923 4.34289 18.4856 4.44966 18.4694 4.56967L18.2297 6.34363C18.2163 6.44283 18.1316 6.51685 18.0315 6.51685H15.4272C15.3294 6.51685 15.2459 6.58764 15.2299 6.68418L14.7564 9.54323C14.7404 9.63976 14.6569 9.71055 14.5591 9.71055H12.5416C12.4197 9.71055 12.3261 9.60234 12.3437 9.48166L13.6153 0.771207C13.6297 0.672951 13.7139 0.600098 13.8132 0.600098H15.8297C15.9509 0.600098 16.0442 0.70693 16.0279 0.826967L15.582 4.11602Z" fill="black" stroke="black" stroke-width="0.1" stroke-linejoin="round"/>
<path d="M27.9686 6.4461C27.9667 6.4461 27.9652 6.44746 27.9649 6.44929C27.8337 7.41214 26.8791 8.46419 26.3226 9.38207C26.311 9.40063 26.3004 9.41918 26.2904 9.43754C26.2341 9.54116 26.2688 9.68262 26.3654 9.75016C26.9508 10.1594 27.4005 10.681 27.7434 11.3319C28.1796 12.2508 28.1126 14.1334 27.9615 15.254L27.922 15.551C27.9087 15.6504 27.824 15.7246 27.7237 15.7246H25.7738C25.6528 15.7246 25.5595 15.6181 25.5756 15.4981L25.5992 15.3212C25.6899 14.6489 25.8152 13.1473 25.5453 12.587C25.3591 12.2209 25.0573 11.9286 24.6384 11.7101C24.561 11.6698 24.4671 11.6902 24.4026 11.749C24.3288 11.8162 24.2525 11.8766 24.1871 11.937C23.3061 12.699 22.3171 13.3042 21.1749 13.7748C20.0997 14.2372 19.3942 14.5292 18.2369 14.6007C18.1132 14.6084 18.0152 14.4999 18.0319 14.3771L18.2821 12.5356C18.2951 12.4401 18.3743 12.3679 18.4703 12.3605C19.2684 12.2992 19.6591 12.0938 20.4342 11.7577C21.2353 11.4216 21.963 10.9957 22.5978 10.4578C23.2283 9.94237 23.7401 9.35966 24.1482 8.73212C24.5347 8.10459 25.4066 7.36499 25.4908 6.73746C25.4988 6.67815 25.4527 6.6254 25.3929 6.6254H20.2288C20.1076 6.6254 20.0143 6.51853 20.0306 6.39848L20.2807 4.55728C20.2942 4.45814 20.3788 4.3842 20.4789 4.3842H28.0215C28.1426 4.3842 28.236 4.49097 28.2197 4.61098L27.9723 6.4429C27.972 6.44473 27.9705 6.4461 27.9686 6.4461ZM20.8787 1.70331C20.8789 1.70331 20.8792 1.7032 20.8793 1.703L22.1089 0.203895C22.1929 0.101494 22.352 0.108051 22.4469 0.200458C22.6804 0.427906 23.0028 0.589046 23.4119 0.69477C23.9129 0.829242 24.4479 0.896478 25.3548 0.896478H27.8898C28.0109 0.896478 28.1042 1.00327 28.088 1.12329L27.8571 2.83002C27.8437 2.92921 27.759 3.0032 27.6589 3.0032H24.9186C23.9253 3.0032 23.2802 2.93597 22.613 2.75667C21.9183 2.62231 21.3421 2.26419 20.8781 1.70467C20.8776 1.70413 20.878 1.70331 20.8787 1.70331ZM33.5305 6.5106C33.5142 6.63064 33.6076 6.73746 33.7287 6.73746H36.3649C36.486 6.73746 36.5793 6.84423 36.5631 6.96423L36.3234 8.73819C36.31 8.8374 36.2254 8.91142 36.1252 8.91142H33.3808C33.2808 8.91142 33.1961 8.98539 33.1826 9.08456L32.3035 15.5723C32.2899 15.6722 32.2042 15.7464 32.1034 15.7454L30.0903 15.7268C29.9699 15.7256 29.8778 15.6192 29.894 15.4999L31.8201 1.2852C31.8336 1.18603 31.9183 1.11206 32.0183 1.11206H34.0331C34.1542 1.11206 34.2475 1.21888 34.2313 1.33891L33.5305 6.5106Z" fill="black" stroke="black" stroke-width="0.1" stroke-linejoin="round"/>
</svg>
