<svg width="44" height="27" viewBox="0 0 44 27" fill="none" xmlns="http://www.w3.org/2000/svg">
<path d="M12.9968 2.36837L12.622 5.13188C12.273 7.70758 11.0813 9.82716 9.04697 11.4906C7.01261 13.1541 4.31908 14.1468 1 14.4151L1.36706 11.7053C2.41139 11.6248 3.44537 11.437 4.41473 11.1418C5.35565 10.8735 6.21127 10.4711 6.95316 9.96132C7.69504 9.45154 8.29475 8.83445 8.80915 8.0832C9.26928 7.35879 9.59498 6.47339 9.73457 5.45384L9.78885 5.05139H2.7862L3.15068 2.36837H12.9994H12.9968ZM16.5252 24.6106C16.2306 24.8789 15.8066 25.1472 15.3077 25.3887C14.7623 25.6033 14.1962 25.7643 13.5551 25.9253C12.9192 26.0326 12.2627 26.1131 11.5621 26.1399C10.8383 26.1399 10.143 26.1131 9.48641 26.0058C8.80657 25.8716 8.16033 25.6838 7.57613 25.4155C6.96867 25.1204 6.45167 24.7448 6.05101 24.2618C5.59864 23.7789 5.28844 23.2154 5.12042 22.5447C4.9007 21.8739 4.88002 21.069 5.00668 20.13L5.69428 15.0591H17.2232L16.8794 17.6079H8.27148L8.05176 19.0299H16.6855L16.3417 21.5788H7.86306C7.95353 22.0617 8.21203 22.4374 8.64113 22.7057C9.3003 23.1886 10.1171 23.4569 11.0917 23.5106C12.0662 23.5642 13.1105 23.4837 14.2065 23.2154C15.2767 22.9471 16.1608 22.5178 16.882 21.9812L16.5252 24.6106ZM18.42 6.41973H21.6254L21.2738 9.02226H18.0685L17.4352 13.6907H14.54L16.1323 1.93909H19.0275L18.42 6.41973Z" fill="black" stroke="black" stroke-width="0.5" stroke-linejoin="round"/>
<path d="M33.5496 8.40513C33.3945 9.55883 32.9834 10.6857 32.3165 11.7857C32.2493 11.8931 32.2105 12.0004 32.1485 12.0809C32.9576 12.5906 33.5651 13.2614 34.0174 14.12C34.5396 15.22 34.7386 16.4274 34.5577 17.7689L34.4827 18.3323H31.6651L31.7297 17.8494C31.8383 17.0445 31.7091 16.2932 31.3859 15.6225C31.1404 15.1395 30.7268 14.7639 30.1426 14.4956C30.0211 14.6297 29.8763 14.7371 29.76 14.8444C28.7053 15.7566 27.5214 16.481 26.154 17.0445C24.7814 17.6347 23.3131 17.9835 21.7544 18.0372L22.1189 15.3542C23.2123 15.3005 24.2773 15.059 25.2674 14.6297C26.2264 14.2273 27.0975 13.7175 27.8575 13.0736C28.6123 12.4565 29.2249 11.7589 29.7135 11.0077C30.1762 10.2564 30.4864 9.50517 30.5872 8.75393L30.6053 8.61977H24.0136L24.3781 5.93676H33.8908L33.5573 8.40513H33.5496ZM24.8408 3.03909L26.5133 1C26.7951 1.40245 27.25 1.67075 27.873 1.83174C28.4727 1.99272 29.3387 2.07321 30.4243 2.07321H33.7331L33.3919 4.59525H29.9022C28.7131 4.59525 27.7153 4.51476 26.9166 4.30011C26.0842 4.13913 25.394 3.70985 24.8382 3.03909H24.8408ZM39.7948 8.67344H43.0002L42.6486 11.276H39.4433L38.3343 19.4592L35.4417 19.4323L37.8121 1.93906H40.7073L39.7948 8.67344Z" fill="black" stroke="black" stroke-width="0.5" stroke-linejoin="round"/>
</svg>
